<?xml version="1.0" encoding="UTF-8" standalone="no"?>
<!-- Created with Inkscape (http://www.inkscape.org/) -->

<svg
   xmlns:dc="http://purl.org/dc/elements/1.1/"
   xmlns:cc="http://creativecommons.org/ns#"
   xmlns:rdf="http://www.w3.org/1999/02/22-rdf-syntax-ns#"
   xmlns:svg="http://www.w3.org/2000/svg"
   xmlns="http://www.w3.org/2000/svg"
   xmlns:sodipodi="http://sodipodi.sourceforge.net/DTD/sodipodi-0.dtd"
   xmlns:inkscape="http://www.inkscape.org/namespaces/inkscape"
   width="10.625in"
   height="7.75in"
   viewBox="0 0 269.875 196.85"
   version="1.1"
   id="svg22"
   inkscape:version="0.92.2 5c3e80d, 2017-08-06"
   sodipodi:docname="design.svg">
  <defs
     id="defs16" />
  <sodipodi:namedview
     id="base"
     pagecolor="#ffffff"
     bordercolor="#666666"
     borderopacity="1.0"
     inkscape:pageopacity="0.0"
     inkscape:pageshadow="2"
     inkscape:zoom="4"
     inkscape:cx="683.27572"
     inkscape:cy="194.26763"
     inkscape:document-units="in"
     inkscape:current-layer="layer1"
     showgrid="false"
     inkscape:window-width="1920"
     inkscape:window-height="1046"
     inkscape:window-x="0"
     inkscape:window-y="0"
     inkscape:window-maximized="1"
     fit-margin-top="0"
     fit-margin-left="0"
     fit-margin-right="0"
     fit-margin-bottom="0" />
  <metadata
     id="metadata19">
    <rdf:RDF>
      <cc:Work
         rdf:about="">
        <dc:format>image/svg+xml</dc:format>
        <dc:type
           rdf:resource="http://purl.org/dc/dcmitype/StillImage" />
        <dc:title />
      </cc:Work>
    </rdf:RDF>
  </metadata>
  <g
     inkscape:label="Layer 1"
     inkscape:groupmode="layer"
     id="layer1"
     transform="translate(0,-100.15)">
    <rect
       style="fill:none;fill-opacity:1;stroke:#000000;stroke-width:0.26458332;stroke-opacity:1"
       id="rect43"
       width="241.1488"
       height="169.33333"
       x="14.363094"
       y="114.05952" />
    <g
       style="fill:#000000;stroke:none"
       transform="matrix(0.00964376,-5.1896971e-6,-5.1896971e-6,-0.00964376,90.629721,202.78975)"
       id="g8">
      <path
         inkscape:connector-curvature="0"
         d="m 3125,6444 c -380,-41 -773,-256 -1029,-563 -285,-342 -438,-787 -405,-1178 16,-197 58,-342 163,-572 114,-248 231,-417 426,-612 146,-146 168,-165 318,-282 151,-119 258,-185 507,-312 116,-59 278,-142 360,-185 455,-233 756,-440 942,-646 122,-135 269,-379 328,-544 80,-224 106,-480 66,-660 -12,-52 -24,-103 -27,-113 -5,-16 -3,-17 13,-6 25,15 54.4878,112.99546 88.4878,228.99546 27,90.00004 36.1677,105.00964 36.1677,348.00964 -49.6525,269.0452 -67.5567,312.4651 -164.4192,498.2644 -87.7999,169.2807 -150.325,261.5829 -350.9862,447.3765 -164.1831,134.9567 -319.0618,237.7554 -390.6652,285.4989 -33,27 -698.2211,478.0337 -768.2899,529.5218 -52,42 -454.5444,345.0827 -600.5444,482.0827 -167,156 -486.8673,569.6912 -513.5257,653.9661 -91.02,170.4786 -157.2631,422.2734 -157.2631,677.2734 0,194 14.781,455.2534 109.3336,623.4457 135.952,225.1729 310.3274,472.7233 538.3274,623.7233 236,157 595.0286,199.9257 921.0286,155.9257 C 3802.6514,6289.0836 4183,6058 4389,5901 c 73,-56 108,-74 99,-52 -8,22 -130,148 -198,205 -218,184 -483,311 -760,366 -96,19 -325,32 -405,24 z"
         id="path4"
         sodipodi:nodetypes="ccccsccccccccccccccccscccccccc" />
      <path
         inkscape:connector-curvature="0"
         d="m 5825,6440 c -217,-25 -420,-95 -610,-208 -154,-92 -400,-321 -584,-543 -91,-110 143,46 234,120 90,72 120,94 190,141 84,57 192,117 235,130 14,5 50,18 80,29 83,32 310.5456,126.4165 441.5456,140.4165 264,29 607.4645,10.6014 801.7859,-137.5988 186.8455,-85.8654 458.6841,-354.6217 563.6841,-571.6217 69,-142 154.0169,-432.6911 146.9778,-579.1234 -8.6139,-179.1913 -22.7192,-250.6599 -55.4147,-373.6944 -68.8759,-218.4645 -157.7908,-465.1711 -338.4086,-672.6317 -160.0918,-159.7555 -501.9806,-457.1233 -911.9806,-730.1233 -389,-259 -637.3149,-371.7652 -739.3149,-513.7652 C 5204.8746,2567.858 5130,2427 5131,2335 c 0,-38 1,-39 11,-15 80,179 101,214 181,294 108,108 218,182 407,272 572,274 769,389 1016,595 137,115 359,338 445,449 157,201 254,414 306,670 22,107 25,431 5,530 -44,217 -116,429 -199,578 -72,131 -241,320 -393,441 -181,144 -352,225 -570,272 -107,23 -394,34 -515,19 z"
         id="path6"
         sodipodi:nodetypes="ccccccccccsccccccsccccccccc" />
    </g>
    <g
       id="g1266"
       transform="matrix(0.95707701,0,0,0.95707701,9.5971753,10.366219)">
      <text
         id="text1027"
         y="262.13388"
         x="27.116211"
         style="font-style:normal;font-weight:normal;font-size:30.00470924px;line-height:1.25;font-family:sans-serif;letter-spacing:0px;word-spacing:0px;fill:#000000;fill-opacity:1;stroke:none;stroke-width:0.75011766"
         xml:space="preserve"><tspan
           id="tspan49"
           style="font-style:normal;font-variant:normal;font-weight:normal;font-stretch:normal;font-family:Quirlycues;-inkscape-font-specification:Quirlycues;stroke-width:0.75011766"
           y="262.13388"
           x="27.116211"
           sodipodi:role="line">Male &amp; Poti</tspan></text>
    </g>
    <text
       xml:space="preserve"
       style="font-style:normal;font-weight:normal;font-size:5.2791667px;line-height:1.25;font-family:sans-serif;letter-spacing:0px;word-spacing:0px;fill:#000000;fill-opacity:1;stroke:none;stroke-width:0.13197915"
       x="100.36179"
       y="270.89026"
       id="text989"><tspan
         sodipodi:role="line"
         id="tspan987"
         x="100.36179"
         y="270.89026"
         style="stroke-width:0.13197915">EST. 2018</tspan></text>
    <g
       style="fill:#000000;stroke:none"
       transform="matrix(0.00698726,0,0,-0.00698726,173.9883,272.59252)"
       id="g851">
      <g
         transform="rotate(-45.543804,4809.5399,-545.92996)"
         id="g886">
        <path
           id="path825"
           d="m 715,5258 c -3,-7 -4,-290 -3,-628 l 3,-615 h 625 625 v 625 625 l -623,3 c -493,2 -624,0 -627,-10 z M 1785,4640 V 4195 H 1340 895 l -3,435 c -1,239 0,441 3,448 3,10 98,12 447,10 l 443,-3 z"
           inkscape:connector-curvature="0" />
        <path
           id="path827"
           d="m 1075,4897 c -3,-7 -4,-127 -3,-267 l 3,-255 h 265 265 v 265 265 l -263,3 c -206,2 -264,0 -267,-11 z"
           inkscape:connector-curvature="0" />
        <path
           id="path829"
           d="m 2697,5264 c -4,-4 -7,-45 -7,-90 v -83 l -87,-3 -88,-3 -5,-85 -5,-85 -87,-3 -87,-3 -3,88 -3,88 h -85 -85 v -85 -85 l 88,-3 87,-3 v -89 -89 l -87,-3 -88,-3 v -85 -85 h 85 85 l 3,88 3,88 87,-3 87,-3 5,-85 5,-85 88,-3 87,-3 v -89 -89 l -87,-3 -88,-3 -5,-175 -5,-175 -87,-3 -88,-3 -2,178 -3,178 h -85 -85 v -175 -175 l 88,-3 87,-3 v -89 -90 l -267,-2 -268,-3 v -85 -85 l 85,-5 85,-5 3,-87 3,-88 h -271 -271 l 3,88 3,87 85,5 85,5 v 85 85 H 1160 715 v -265 -265 l 87,-3 88,-3 2,-192 3,-192 h 175 175 l 3,102 3,102 87,3 87,3 3,88 3,88 87,-3 87,-3 5,-85 5,-85 88,-3 87,-3 v -104 -104 l -87,-3 -88,-3 -3,-87 -3,-87 -87,-3 -87,-3 v -85 -85 l 87,-3 87,-3 3,-87 3,-87 87,-3 87,-3 3,-87 3,-87 h 85 85 v 85 85 l -87,3 -88,3 v 89 89 l 88,3 87,3 v 85 85 l -87,3 -88,3 v 89 90 l 178,2 177,3 3,103 3,103 87,-3 87,-3 5,-100 5,-100 h 85 85 l 5,100 5,100 85,5 85,5 v 85 85 l -175,5 -175,5 -5,85 -5,85 -88,3 -88,3 3,87 3,87 85,5 85,5 3,88 3,88 87,-3 87,-3 5,-85 5,-85 85,-5 85,-5 5,-85 5,-85 283,-3 282,-2 v -180 -180 l -192,-2 -193,-3 -3,-102 -3,-102 -87,-3 -87,-3 v -85 -85 l 87,-3 88,-3 2,-177 3,-177 102,-3 102,-3 3,-87 3,-87 85,-5 85,-5 3,-87 3,-87 -88,-3 -88,-3 -3,-87 -3,-87 -102,-3 -102,-3 -5,-85 -5,-85 -87,-3 -87,-3 -3,88 -3,88 h -85 -85 l -3,-87 -3,-88 -177,-2 -177,-3 V 1190 745 h 85 85 l 5,355 5,355 87,3 88,3 2,-178 3,-178 88,-3 87,-3 v -89 -89 l -87,-3 -88,-3 v -85 -85 h 85 85 l 3,88 3,88 87,-3 87,-3 5,-85 5,-85 h 280 280 l 5,85 5,85 267,3 267,2 3,-87 3,-88 h 625 625 v 265 265 h -85 -85 l -5,-175 -5,-175 h -175 -175 v 85 85 l 85,5 85,5 v 265 265 l -87,3 -88,3 v 90 89 l 178,-2 177,-3 5,-175 5,-175 h 85 85 v 265 265 l -267,3 -268,2 v 90 89 l 88,3 87,3 v 85 85 h -85 -85 l -3,-88 -3,-88 -87,3 -87,3 v 175 175 l 85,5 85,5 3,178 2,178 88,-3 87,-3 5,-175 5,-175 85,-5 85,-5 5,-85 5,-85 h 85 85 v 175 175 l -85,5 -85,5 v 85 85 l 85,5 85,5 v 280 280 l -85,5 -85,5 -5,175 -5,175 h -85 -85 v -265 -265 l 85,-5 85,-5 v -85 -85 l -175,-5 -175,-5 -3,-102 -3,-103 h -90 -89 l 2,193 3,192 85,5 85,5 v 85 85 l -177,3 -178,2 -2,178 -3,177 h -85 -85 l -3,-177 -2,-178 h -90 -90 l -2,178 -3,177 -87,3 -88,3 -2,177 -3,177 -87,3 -87,3 -3,87 -3,87 -175,5 -175,5 v 85 85 l 85,5 85,5 3,178 2,177 h 90 89 l 3,-87 3,-88 h 85 85 v 85 85 l -87,3 -88,3 v 89 89 l 88,3 87,3 v 85 85 h -85 -85 l -3,-87 -3,-87 -87,-3 -87,-3 -3,-87 -3,-88 h -89 -89 l -3,88 -3,87 -192,3 -192,2 -3,88 -3,87 -80,3 c -45,1 -84,0 -88,-4 z m 171,-261 -3,-88 h -85 -85 l -3,88 -3,87 h 91 91 z m 390,-180 -3,-88 h -85 -85 l -3,74 c -2,41 -1,80 2,88 4,9 29,13 91,13 h 86 z m -390,-185 3,-87 102,-3 102,-3 3,-177 2,-177 88,-3 87,-3 v -175 -175 h -280 -280 l -3,267 -2,267 87,3 88,3 3,88 3,87 h -91 -90 v 83 c 0,46 3,87 7,91 4,4 43,5 88,4 l 80,-3 z m 754,-625 3,-178 88,-3 88,-3 -3,-87 -3,-87 -85,-5 -85,-5 -5,-85 -5,-85 -178,-3 -178,-2 3,87 3,88 85,5 85,5 3,255 c 1,140 4,261 7,268 3,8 31,12 89,12 h 86 z m -2554,-545 2,-178 h 90 89 l 3,88 3,87 88,3 87,3 v -91 -90 h -90 -90 v -90 -91 l -87,3 -88,3 -3,88 -3,87 h -89 -90 v 173 c 0,96 3,177 7,181 4,4 43,5 88,4 l 80,-3 z m 1082,-178 v -180 h -180 -181 l 3,88 3,87 85,5 85,5 3,88 3,87 h 89 90 z m 1832,93 3,-88 h 85 85 l 3,88 3,87 h 89 90 v -285 -285 h 90 91 l -3,-87 -3,-88 h -85 -85 l -3,88 -3,87 h -89 -89 l -3,-87 -3,-88 -85,-5 -85,-5 -5,-85 -5,-85 h -85 -85 l -3,178 -2,177 h -90 -89 l -3,-87 -3,-88 h -175 -175 l -3,193 -2,193 87,-3 88,-3 5,-100 5,-100 87,-3 88,-3 2,193 3,193 85,5 85,5 3,75 c 1,41 4,81 7,88 3,8 30,12 89,12 h 85 z m -907,-573 v -85 l -102,-3 -103,-3 v 91 91 l 103,-3 102,-3 z M 1790,2630 v -90 h -90 -90 v 90 90 h 90 90 z m 1465,-180 v -85 l -87,-3 -88,-3 v 84 c 0,46 3,87 7,91 4,4 43,5 88,4 l 80,-3 z m 360,-180 v -85 h -85 -85 l -3,74 c -2,41 -1,80 2,88 4,11 25,13 88,11 l 83,-3 z m 720,-360 v -265 h -265 -265 l -3,255 c -1,140 0,260 3,267 3,11 61,13 267,11 l 263,-3 z m -720,-90 v -175 h -265 -265 l -3,87 -3,87 88,3 88,3 3,88 3,87 177,-2 177,-3 z m 1085,90 v -91 l -87,3 -88,3 -3,74 c -2,41 -1,80 2,88 4,9 28,13 91,13 h 85 z m -2012,-357 -3,-88 -87,-3 -88,-3 v 91 90 h 90 91 z m 2010,0 -3,-88 h -85 -85 l -3,74 c -2,41 -1,80 2,88 4,9 29,13 91,13 h 86 z m -898,-183 5,-85 h 175 175 l 5,85 5,85 h 85 85 l 5,-85 5,-85 85,-5 85,-5 v -85 -85 l -175,-5 -175,-5 -5,-85 -5,-85 -87,-3 -87,-3 -3,88 -3,88 -265,5 -265,5 -5,85 -5,85 h -85 -85 l -5,-175 -5,-175 h -85 -85 l -5,85 -5,85 -193,3 -193,2 3,88 3,87 85,5 85,5 3,75 c 1,41 4,81 7,88 3,10 101,12 462,10 l 458,-3 z"
           inkscape:connector-curvature="0" />
        <path
           id="path831"
           d="m 2874,4177 c -3,-8 -4,-47 -2,-88 l 3,-74 h 100 100 l 3,88 3,87 h -101 c -75,0 -102,-3 -106,-13 z"
           inkscape:connector-curvature="0" />
        <path
           id="path833"
           d="m 3807,3104 c -4,-4 -7,-52 -7,-106 v -98 h 180 181 l -3,103 -3,102 -171,3 c -93,1 -173,-1 -177,-4 z"
           inkscape:connector-curvature="0" />
        <path
           id="path835"
           d="m 3984,1987 c -3,-8 -4,-47 -2,-88 l 3,-74 h 85 85 v 85 85 l -83,3 c -63,2 -84,0 -88,-11 z"
           inkscape:connector-curvature="0" />
        <path
           id="path837"
           d="m 3985,5258 c -3,-7 -4,-290 -3,-628 l 3,-615 h 625 625 v 625 625 l -623,3 c -493,2 -624,0 -627,-10 z m 1070,-618 v -445 h -445 -445 l -3,435 c -1,239 0,441 3,448 3,10 98,12 447,10 l 443,-3 z"
           inkscape:connector-curvature="0" />
        <path
           id="path839"
           d="m 4345,4897 c -3,-7 -4,-127 -3,-267 l 3,-255 h 265 265 v 265 265 l -263,3 c -206,2 -264,0 -267,-11 z"
           inkscape:connector-curvature="0" />
        <path
           id="path841"
           d="m 4524,3817 c -3,-8 -4,-47 -2,-88 l 3,-74 h 85 85 v 85 85 l -83,3 c -63,2 -84,0 -88,-11 z"
           inkscape:connector-curvature="0" />
        <path
           id="path843"
           d="m 895,2708 c -3,-7 -4,-128 -3,-268 l 3,-255 h 265 265 v 85 85 l -175,5 -175,5 -5,175 -5,175 -83,3 c -61,2 -84,-1 -87,-10 z"
           inkscape:connector-curvature="0" />
        <path
           id="path845"
           d="m 2334,2527 c -3,-8 -4,-47 -2,-88 l 3,-74 88,-3 88,-3 -3,-87 -3,-87 -175,-5 -175,-5 v -175 -175 h 85 85 l 5,85 5,85 265,5 265,5 v 85 85 l -85,5 -85,5 -5,85 -5,85 -87,3 -87,3 -3,87 -3,87 -83,3 c -63,2 -84,0 -88,-11 z"
           inkscape:connector-curvature="0" />
        <path
           id="path847"
           d="m 715,1988 c -3,-7 -4,-290 -3,-628 l 3,-615 h 625 625 v 625 625 l -623,3 c -493,2 -624,0 -627,-10 z M 1785,1370 V 925 H 1340 895 l -3,435 c -1,239 0,441 3,448 3,10 98,12 447,10 l 443,-3 z"
           inkscape:connector-curvature="0" />
        <path
           id="path849"
           d="m 1075,1627 c -3,-7 -4,-127 -3,-267 l 3,-255 h 265 265 v 265 265 l -263,3 c -206,2 -264,0 -267,-11 z"
           inkscape:connector-curvature="0" />
      </g>
    </g>
  </g>
</svg>
