<?xml version="1.0" encoding="UTF-8" standalone="no"?>
<!-- Created with Inkscape (http://www.inkscape.org/) -->

<svg
   xmlns:dc="http://purl.org/dc/elements/1.1/"
   xmlns:cc="http://creativecommons.org/ns#"
   xmlns:rdf="http://www.w3.org/1999/02/22-rdf-syntax-ns#"
   xmlns:svg="http://www.w3.org/2000/svg"
   xmlns="http://www.w3.org/2000/svg"
   xmlns:sodipodi="http://sodipodi.sourceforge.net/DTD/sodipodi-0.dtd"
   xmlns:inkscape="http://www.inkscape.org/namespaces/inkscape"
   width="210mm"
   height="297mm"
   viewBox="0 0 210 297"
   version="1.1"
   id="svg8"
   sodipodi:docname="title.svg"
   inkscape:version="0.92.1 r">
  <defs
     id="defs2" />
  <sodipodi:namedview
     id="base"
     pagecolor="#ffffff"
     bordercolor="#666666"
     borderopacity="1.0"
     inkscape:pageopacity="0.0"
     inkscape:pageshadow="2"
     inkscape:zoom="2.8"
     inkscape:cx="396.11836"
     inkscape:cy="609.4456"
     inkscape:document-units="mm"
     inkscape:current-layer="layer1"
     showgrid="false"
     inkscape:window-width="1920"
     inkscape:window-height="1028"
     inkscape:window-x="0"
     inkscape:window-y="25"
     inkscape:window-maximized="1" />
  <metadata
     id="metadata5">
    <rdf:RDF>
      <cc:Work
         rdf:about="">
        <dc:format>image/svg+xml</dc:format>
        <dc:type
           rdf:resource="http://purl.org/dc/dcmitype/StillImage" />
        <dc:title />
      </cc:Work>
    </rdf:RDF>
  </metadata>
  <g
     inkscape:label="Layer 1"
     inkscape:groupmode="layer"
     id="layer1">
    <text
       xml:space="preserve"
       style="font-style:normal;font-weight:normal;font-size:16.87997627px;line-height:1.25;font-family:sans-serif;letter-spacing:0px;word-spacing:0px;fill:#000000;fill-opacity:1;stroke:none;stroke-width:0.42199937"
       x="63.717758"
       y="161.43106"
       id="text4487"
       transform="scale(0.9968726,1.0031372)"
       inkscape:export-xdpi="164.47754"
       inkscape:export-ydpi="164.47754"><tspan
         sodipodi:role="line"
         id="tspan4485"
         x="63.717758"
         y="161.43106"
         style="font-style:normal;font-variant:normal;font-weight:normal;font-stretch:normal;font-family:Quirlycues;-inkscape-font-specification:Quirlycues;stroke-width:0.42199937">Male &amp; Poti</tspan></text>
    <g
       id="g4512"
       transform="matrix(0.00365013,0,0,-0.00365013,86.426388,143.83871)"
       style="fill:#000000;stroke:none">
      <path
         id="path4510"
         d="m 2275,8310 c -22,-5 -74,-13 -115,-19 -157,-21 -355,-75 -505,-136 C 1280,8003 972,7778 714,7468 450,7151 263,6732 209,6340 c -5,-41 -14,-97 -18,-124 -13,-74 -13,-414 -1,-529 28,-260 60,-457 90,-551 5,-17 19,-65 30,-106 12,-41 25,-84 30,-95 5,-11 18,-47 29,-80 33,-100 47,-134 125,-295 79,-163 127,-249 214,-380 124,-188 280,-391 406,-529 23,-25 65,-72 95,-105 79,-88 338,-344 465,-461 60,-55 122,-111 136,-125 48,-45 113,-104 195,-175 44,-39 82,-72 85,-75 3,-3 57,-51 120,-105 63,-55 121,-107 130,-115 9,-8 45,-40 80,-70 35,-30 89,-77 119,-105 31,-27 60,-54 67,-60 6,-5 49,-44 95,-85 226,-202 339,-309 609,-580 275,-275 333,-336 465,-490 54,-63 101,-117 104,-120 4,-3 53,-63 110,-135 57,-71 111,-139 120,-150 9,-11 28,-38 43,-60 15,-22 38,-52 50,-67 13,-15 43,-57 68,-93 25,-36 67,-96 94,-133 27,-37 62,-89 78,-115 17,-26 35,-46 42,-44 6,2 54,67 106,144 149,222 170,252 249,358 111,149 314,402 386,481 6,6 44,49 85,95 149,167 178,197 401,419 231,231 284,282 474,455 60,55 116,107 125,115 8,8 74,67 145,130 72,63 132,117 135,120 3,3 41,37 85,75 44,39 100,88 124,110 60,55 56,51 145,130 44,39 87,77 96,85 9,8 70,65 136,125 445,411 706,687 961,1020 170,221 374,582 448,790 10,28 22,54 27,60 4,5 8,15 8,23 0,8 6,28 14,45 13,30 37,109 71,232 12,46 23,98 54,255 38,188 50,568 26,787 -9,87 -21,165 -25,173 -4,8 -10,39 -14,68 -4,29 -11,63 -15,75 -5,12 -19,56 -31,97 -12,41 -26,83 -31,92 -5,10 -9,23 -9,28 0,6 -9,32 -21,58 -11,26 -24,56 -29,67 -74,171 -185,360 -298,509 -146,192 -423,444 -605,552 -27,16 -70,41 -95,57 -66,38 -270,137 -285,137 -7,0 -17,4 -22,9 -6,5 -41,19 -80,31 -38,12 -88,28 -110,35 -107,34 -174,49 -295,66 -41,5 -97,14 -125,19 -65,11 -414,11 -485,-1 -30,-5 -86,-13 -125,-18 -77,-10 -151,-25 -205,-40 -19,-6 -69,-20 -110,-31 -41,-12 -83,-25 -92,-31 -10,-5 -23,-9 -29,-9 -6,0 -27,-7 -47,-16 -21,-9 -55,-23 -76,-32 -143,-61 -339,-172 -456,-259 -90,-66 -106,-79 -180,-144 -134,-119 -325,-334 -369,-416 -6,-13 -20,-27 -30,-33 -17,-8 -24,-2 -55,45 -20,29 -42,60 -49,67 -7,7 -35,42 -61,77 -147,192 -441,436 -691,573 -219,121 -497,214 -740,248 -38,6 -98,15 -131,20 -72,12 -431,11 -489,0 z m 546,-360 c 115,-18 169,-30 274,-60 46,-13 121,-38 150,-51 153,-64 167,-71 290,-143 333,-198 604,-494 773,-846 107,-224 149,-315 157,-339 7,-24 8,-24 22,-5 8,10 26,44 40,74 148,325 202,426 307,574 61,86 204,244 273,302 32,27 60,52 63,55 3,3 41,32 85,65 156,118 363,227 535,283 270,89 377,106 665,106 247,0 351,-13 555,-71 533,-151 1003,-552 1247,-1064 135,-282 182,-490 190,-835 6,-274 -11,-426 -81,-720 -15,-64 -79,-261 -101,-310 -8,-16 -23,-52 -35,-80 -46,-107 -161,-327 -186,-356 -8,-8 -14,-18 -14,-22 0,-10 -152,-228 -217,-312 -79,-101 -171,-209 -245,-290 -20,-22 -46,-51 -58,-65 -65,-76 -368,-373 -545,-535 -60,-55 -116,-107 -125,-115 -9,-8 -51,-46 -95,-85 -101,-88 -94,-83 -146,-130 -24,-22 -80,-72 -124,-110 -97,-85 -83,-72 -191,-171 -49,-45 -105,-94 -124,-110 -19,-16 -42,-36 -50,-44 -9,-8 -65,-60 -126,-115 -262,-239 -694,-665 -849,-838 -117,-129 -240,-270 -290,-331 -22,-27 -56,-68 -75,-91 -20,-22 -91,-114 -158,-203 -68,-89 -128,-162 -135,-162 -7,0 -34,30 -62,67 -27,36 -55,71 -60,77 -6,6 -32,39 -58,73 -26,34 -53,68 -60,75 -6,7 -37,45 -68,83 -31,39 -65,79 -75,90 -11,12 -44,50 -74,85 -122,145 -280,309 -587,610 -216,212 -288,280 -433,410 -118,106 -109,97 -161,145 -24,22 -96,85 -159,140 -63,55 -117,102 -120,105 -3,3 -41,37 -85,75 -44,39 -82,72 -85,75 -3,3 -41,37 -85,75 -76,66 -215,191 -335,300 -192,175 -454,438 -590,591 -101,114 -260,311 -260,323 0,3 -10,17 -23,31 -84,94 -337,543 -362,643 -4,15 -11,30 -16,33 -5,3 -9,13 -9,22 0,9 -6,29 -14,44 -8,15 -17,42 -21,60 -4,18 -10,38 -14,43 -12,20 -51,170 -77,300 -70,348 -73,765 -8,1045 21,86 62,222 85,275 39,93 56,131 95,209 44,87 164,271 220,337 36,43 239,245 279,279 17,14 46,37 65,50 19,14 37,27 40,30 34,34 257,161 360,205 25,10 64,27 87,37 23,10 48,18 56,18 7,0 17,3 21,7 15,15 191,59 336,83 155,26 440,26 601,0 z"
         inkscape:connector-curvature="0" />
    </g>
  </g>
</svg>
